<svg width="34" height="40" viewBox="0 0 34 40" fill="none" xmlns="http://www.w3.org/2000/svg">
<g clip-path="url(#clip0_2_4)" filter="url(#filter0_d_2_4)">
<path d="M10.437 31.4C9.806 30.979 9.246 30.463 8.778 29.867C8.267 29.25 7.794 28.6 7.359 27.928C6.338 26.435 5.539 24.801 4.986 23.08C4.319 21.077 3.995 19.16 3.995 17.284C3.995 15.191 4.448 13.364 5.331 11.831C5.984 10.631 6.958 9.62699 8.131 8.92199C9.264 8.21499 10.584 7.82899 11.918 7.80199C12.385 7.80199 12.891 7.86899 13.425 8.00199C13.812 8.10899 14.278 8.28199 14.852 8.49499C15.585 8.77499 15.985 8.94799 16.119 8.98799C16.546 9.14799 16.906 9.21499 17.186 9.21499C17.399 9.21499 17.706 9.14799 18.046 9.04199C18.239 8.97499 18.606 8.85499 19.126 8.62899C19.641 8.44199 20.049 8.28199 20.373 8.16199C20.866 8.01499 21.344 7.88199 21.773 7.81499C22.293 7.73499 22.809 7.70799 23.304 7.74799C24.251 7.81499 25.117 8.01499 25.891 8.30799C27.251 8.85499 28.348 9.70799 29.167 10.921C28.82 11.134 28.5 11.382 28.2 11.654C27.551 12.227 27 12.907 26.56 13.661C25.987 14.688 25.693 15.848 25.701 17.021C25.721 18.465 26.088 19.734 26.821 20.834C27.337 21.634 28.026 22.319 28.866 22.882C29.279 23.162 29.642 23.355 29.986 23.482C29.826 23.982 29.65 24.469 29.446 24.949C28.983 26.025 28.433 27.056 27.779 28.029C27.203 28.869 26.75 29.496 26.406 29.909C25.87 30.549 25.353 31.029 24.833 31.372C24.26 31.752 23.586 31.953 22.897 31.953C22.43 31.973 21.964 31.913 21.518 31.784C21.131 31.657 20.75 31.515 20.377 31.353C19.986 31.174 19.582 31.022 19.17 30.9C18.663 30.767 18.143 30.703 17.618 30.704C17.085 30.704 16.565 30.771 16.071 30.897C15.658 31.014 15.258 31.158 14.862 31.33C14.302 31.563 13.935 31.717 13.722 31.783C13.29 31.911 12.847 31.988 12.402 32.016C11.709 32.016 11.063 31.816 10.438 31.399L10.437 31.4ZM19.576 6.78699C18.669 7.23999 17.808 7.43199 16.945 7.36799C16.812 6.50699 16.945 5.62099 17.305 4.65199C17.625 3.82499 18.052 3.07899 18.638 2.41199C19.251 1.71899 19.985 1.14499 20.811 0.731993C21.691 0.278993 22.531 0.0389929 23.331 -0.00100708C23.438 0.905993 23.331 1.79899 22.998 2.75899C22.694 3.61199 22.241 4.39899 21.665 5.10599C21.085 5.79899 20.365 6.37299 19.576 6.78699Z" fill="white"/>
</g>
<defs>
<filter id="filter0_d_2_4" x="-3" y="0" width="40" height="40" filterUnits="userSpaceOnUse" color-interpolation-filters="sRGB">
<feFlood flood-opacity="0" result="BackgroundImageFix"/>
<feColorMatrix in="SourceAlpha" type="matrix" values="0 0 0 0 0 0 0 0 0 0 0 0 0 0 0 0 0 0 127 0" result="hardAlpha"/>
<feOffset dy="4"/>
<feGaussianBlur stdDeviation="2"/>
<feComposite in2="hardAlpha" operator="out"/>
<feColorMatrix type="matrix" values="0 0 0 0 0 0 0 0 0 0 0 0 0 0 0 0 0 0 0.25 0"/>
<feBlend mode="normal" in2="BackgroundImageFix" result="effect1_dropShadow_2_4"/>
<feBlend mode="normal" in="SourceGraphic" in2="effect1_dropShadow_2_4" result="shape"/>
</filter>
<clipPath id="clip0_2_4">
<rect width="32" height="32" fill="white" transform="translate(1)"/>
</clipPath>
</defs>
</svg>
